# xmcd
#
# Track frame offsets:
#	150
#	16307
#	36962
#	58024
#	78969
#	101278
#	125004
#	144687
#	168834
#	189395
#	205159
#	226134
#	248439
#	268089
#
# Disc length: 3805 seconds
#
# Revision: 1
# Processed by: cddbd v1.5.2PL0 Copyright (c) Steve Scherf et al.
# Submitted via: EasyCDDAExtractor 15.3.0.1
#
DISCID=b30edb0e
DTITLE=Tam Ca Ao Trang - VAFACO - Chao! Tam Ca Ao Trang
DYEAR=1999
DGENRE=Vietnamese
TTITLE0=Dreaming My Love
TTITLE1=Thoi Gian Se Xoa
TTITLE2=Dau Yeu Xua
TTITLE3=Vang! Chinh Em
TTITLE4=Cam Xua Chieu Mua
TTITLE5=Doa Hoa Trang
TTITLE6=Hat Ru Tinh Xa
TTITLE7=La Song Di Ve
TTITLE8="Meo" Yeu
TTITLE9=Tieng Anh Em Dem
TTITLE10=Yes, I Will
TTITLE11=Makurauta
TTITLE12=Any Where I Go
TTITLE13=Watashiwa Kaze
EXTD=
EXTT0=
EXTT1=
EXTT2=
EXTT3=
EXTT4=
EXTT5=
EXTT6=
EXTT7=
EXTT8=
EXTT9=
EXTT10=
EXTT11=
EXTT12=
EXTT13=
PLAYORDER=
